HIERARCHY
ROOT Hips
{
  OFFSET -24.5077 92.419 -73.7383
  CHANNELS 6 Xposition Yposition Zposition Zrotation Xrotation Yrotation
  JOINT LeftUpLeg
  {
    OFFSET 9.63379 -0.250344 0
    CHANNELS 6 Xposition Yposition Zposition Zrotation Xrotation Yrotation
    JOINT LeftLeg
    {
      OFFSET 0 -40.4779 -1.71313
      CHANNELS 6 Xposition Yposition Zposition Zrotation Xrotation Yrotation
      JOINT LeftFoot
      {
        OFFSET 0.0126047 -40.4416 -0.864524
        CHANNELS 6 Xposition Yposition Zposition Zrotation Xrotation Yrotation
        JOINT LeftToeBase
        {
          OFFSET -0.183287 -12.1867 8.28226
          CHANNELS 6 Xposition Yposition Zposition Zrotation Xrotation Yrotation
          End Site
          {
            OFFSET 0 0 9.15615
          }
        }
      }
    }
  }
  JOINT RightUpLeg
  {
    OFFSET -9.63379 -0.250344 0
    CHANNELS 6 Xposition Yposition Zposition Zrotation Xrotation Yrotation
    JOINT RightLeg
    {
      OFFSET 0 -40.478 -1.71313
      CHANNELS 6 Xposition Yposition Zposition Zrotation Xrotation Yrotation
      JOINT RightFoot
      {
        OFFSET -0.0126047 -40.4414 -0.864524
        CHANNELS 6 Xposition Yposition Zposition Zrotation Xrotation Yrotation
        JOINT RightToeBase
        {
          OFFSET 0.183287 -12.1867 8.28226
          CHANNELS 6 Xposition Yposition Zposition Zrotation Xrotation Yrotation
          End Site
          {
            OFFSET 0.00319481 0 9.156
          }
        }
      }
    }
  }
  JOINT Spine
  {
    OFFSET 0 5.60909 -1.89659
    CHANNELS 6 Xposition Yposition Zposition Zrotation Xrotation Yrotation
    JOINT Spine1
    {
      OFFSET 0 6.56349 1.09934
      CHANNELS 6 Xposition Yposition Zposition Zrotation Xrotation Yrotation
      JOINT Spine2
      {
        OFFSET 0 7.57662 1.04304
        CHANNELS 6 Xposition Yposition Zposition Zrotation Xrotation Yrotation
        JOINT Spine3
        {
          OFFSET 0 8.29213 0.399731
          CHANNELS 6 Xposition Yposition Zposition Zrotation Xrotation Yrotation
          JOINT Spine4
          {
            OFFSET 0 8.9581 -0.526302
            CHANNELS 6 Xposition Yposition Zposition Zrotation Xrotation Yrotation
            JOINT Neck
            {
              OFFSET 0 18.4163 -4.35419
              CHANNELS 6 Xposition Yposition Zposition Zrotation Xrotation Yrotation
              JOINT Head
              {
                OFFSET 0 8.97127 1.78542
                CHANNELS 6 Xposition Yposition Zposition Zrotation Xrotation Yrotation
                End Site
                {
                  OFFSET 0 19.3737 0.971395
                }
              }
            }
            JOINT LeftShoulder
            {
              OFFSET 6.14423 15.3316 -3.79324
              CHANNELS 6 Xposition Yposition Zposition Zrotation Xrotation Yrotation
              JOINT LeftArm
              {
                OFFSET 9.01906 -1.11411 -1.79347
                CHANNELS 6 Xposition Yposition Zposition Zrotation Xrotation Yrotation
                JOINT LeftForeArm
                {
                  OFFSET 27.687 0 0
                  CHANNELS 6 Xposition Yposition Zposition Zrotation Xrotation Yrotation
                  JOINT LeftHand
                  {
                    OFFSET 27.8738 0 0
                    CHANNELS 6 Xposition Yposition Zposition Zrotation Xrotation Yrotation
                    End Site
                    {
                      OFFSET 5 0 0
                    }
                  }
                }
              }
            }
            JOINT RightShoulder
            {
              OFFSET -6.14423 15.3316 -3.79324
              CHANNELS 6 Xposition Yposition Zposition Zrotation Xrotation Yrotation
              JOINT RightArm
              {
                OFFSET -9.01884 -1.11411 -1.79347
                CHANNELS 6 Xposition Yposition Zposition Zrotation Xrotation Yrotation
                JOINT RightForeArm
                {
                  OFFSET -27.0381 0.00109999 0
                  CHANNELS 6 Xposition Yposition Zposition Zrotation Xrotation Yrotation
                  JOINT RightHand
                  {
                    OFFSET -28.5227 0 0
                    CHANNELS 6 Xposition Yposition Zposition Zrotation Xrotation Yrotation
                    End Site
                    {
                      OFFSET -5 0 0
                    }
                  }
                }
              }
            }
          }
        }
      }
    }
  }
}
MOTION
Frames:	7
Frame Time:	0.00833333
-25.1773 93.4295 -27.984 -0.0330144 -0.00554695 -0.00291257 9.63379 -0.250344 -7.15256e-007 5.24217 -1.25502 10.9076 0 -40.4779 -1.71313 2.98034 2.5247 -0.0815641 0.0126047 -40.4416 -0.864524 0.387561 -0.062828 -0.00806631 -0.183287 -12.1867 8.28226 3.86144e-012 3.29492e-011 -3.25514e-011 -9.63379 -0.250344 -7.15256e-007 -5.18758 -0.853106 -0.0039458 0 -40.478 -1.71313 -0.0398784 1.7474 -0.342741 -0.0126047 -40.4414 -0.864524 -0.311119 -0.943486 0.00391817 0.183287 -12.1867 8.28226 6.4448e-013 1.17236e-011 7.15525e-013 -2.64698e-023 5.60909 -1.89659 0.0411251 -0.00173888 -0.0107269 0 6.56349 1.09934 -0.0125848 -0.00254447 -0.00172301 0 7.57662 1.04304 -0.0125845 -0.00254436 -0.0026759 0 8.29213 0.399731 -0.0125842 -0.00254434 -0.00282645 0 8.9581 -0.526302 -0.0125839 -0.00254434 -0.00267648 0 18.4163 -4.35419 -0.0142699 0.0155659 -0.00672804 1.05879e-022 8.97127 1.78542 -0.000616331 -7.458e-005 -0.0106929 6.14423 15.3316 -3.79324 -4.60502 0.43221 0.00901842 9.01906 -1.11411 -1.79347 1.37299 -7.92 0.969252 27.687 0 0 -1.928 7.11003 -1.42451 27.8738 0 0 0.731269 -0.121587 0.560061 -6.14423 15.3316 -3.79324 1.01497 0.0960246 -2.52555 -9.01884 -1.11411 -1.79347 0.586889 -0.128647 -0.249376 -27.0381 0.00109999 5.96046e-008 -0.169975 0.0137568 0.0639075 -28.5227 0 0 -0.37724 1.33338 -0.376393 
-25.1784 93.4309 -27.9827 -0.0330154 -0.0111213 -0.00684612 9.63379 -0.250344 -7.15256e-007 5.24096 -1.24883 10.9071 0 -40.4779 -1.71313 2.98019 2.5247 -0.0815641 0.0126047 -40.4416 -0.864524 0.387561 -0.062828 -0.00806631 -0.183287 -12.1867 8.28226 3.86144e-012 3.29492e-011 -3.25514e-011 -9.63379 -0.250344 -7.15256e-007 -5.18744 -0.858332 0.00521347 0 -40.478 -1.71313 -0.015118 1.74424 -0.363124 -0.0126047 -40.4414 -0.864524 -0.311118 -0.958289 0.00391819 0.183287 -12.1867 8.28226 6.4448e-013 1.17236e-011 7.15525e-013 -2.64698e-023 5.60909 -1.89659 0.0398027 -0.00271438 -0.0107269 0 6.56349 1.09934 -0.0125849 -0.0044866 -0.00172301 0 7.57662 1.04304 -0.0125846 -0.00448648 -0.0026759 0 8.29213 0.399731 -0.0125843 -0.00448644 -0.00282645 0 8.9581 -0.526302 -0.012584 -0.00448641 -0.00267648 0 18.4163 -4.35419 -0.0280372 0.0318384 -0.0144817 1.05879e-022 8.97127 1.78542 -0.00167223 -0.000295633 -0.0221459 6.14423 15.3316 -3.79324 -4.60604 0.43221 -0.0132171 9.01906 -1.11411 -1.79347 1.3576 -7.8107 0.979008 27.687 0 0 -1.99671 6.52566 -1.39652 27.8738 0 0 0.982665 -0.103069 0.46557 -6.14423 15.3316 -3.79324 1.0035 0.0960267 -2.49686 -9.01884 -1.11411 -1.79347 0.594246 -0.10871 -0.275117 -27.0381 0.00109999 5.96046e-008 -0.178224 0.0180591 0.0633331 -28.5227 0 0 -0.368214 1.3479 -0.343532 
-25.1794 93.432 -27.9816 -0.0330173 -0.0160351 -0.0114101 9.63379 -0.250344 -7.15256e-007 5.23982 -1.24298 10.9062 0 -40.4779 -1.71313 2.98041 2.5247 -0.0815641 0.0126047 -40.4416 -0.864524 0.387561 -0.062828 -0.00806631 -0.183287 -12.1867 8.28226 3.86144e-012 3.29492e-011 -3.25514e-011 -9.63379 -0.250344 -7.15256e-007 -5.18728 -0.863661 0.0157754 0 -40.478 -1.71313 0.00631724 1.74364 -0.380761 -0.0126047 -40.4414 -0.864524 -0.311117 -0.971584 0.0039182 0.183287 -12.1867 8.28226 6.4448e-013 1.17236e-011 7.15525e-013 -2.64698e-023 5.60909 -1.89659 0.0389568 -0.00380813 -0.0107269 0 6.56349 1.09934 -0.0125849 -0.00666878 -0.00172301 0 7.57662 1.04304 -0.0125847 -0.00666864 -0.0026759 0 8.29213 0.399731 -0.0125844 -0.00666858 -0.00282645 0 8.9581 -0.526302 -0.0125841 -0.00666854 -0.00267648 0 18.4163 -4.35419 -0.0427986 0.0466977 -0.0201841 1.05879e-022 8.97127 1.78542 -0.00184908 -0.00022374 -0.0320787 6.14423 15.3316 -3.79324 -4.60654 0.43221 -0.0314637 9.01906 -1.11411 -1.79347 1.34498 -7.72116 0.987042 27.687 0 0 -2.05251 6.0528 -1.37375 27.8738 0 0 1.1869 -0.0880799 0.389136 -6.14423 15.3316 -3.79324 0.992395 0.0960283 -2.47548 -9.01884 -1.11411 -1.79347 0.601352 -0.091936 -0.290738 -27.0381 0.00109999 5.96046e-008 -0.185913 0.0234748 0.0618518 -28.5227 0 0 -0.359862 1.36017 -0.316357 
-25.1798 93.4324 -27.9808 -0.03302 -0.0192976 -0.01755 9.63379 -0.250344 -7.15256e-007 5.23882 -1.23802 10.9045 0 -40.4779 -1.71313 2.98155 2.5247 -0.0815641 0.0126047 -40.4416 -0.864524 0.387561 -0.062828 -0.00806631 -0.183287 -12.1867 8.28226 3.86144e-012 3.29492e-011 -3.25514e-011 -9.63379 -0.250344 -7.15256e-007 -5.18706 -0.869251 0.0298438 0 -40.478 -1.71313 0.0194459 1.74946 -0.391537 -0.0126047 -40.4414 -0.864524 -0.311117 -0.981114 0.00391821 0.183287 -12.1867 8.28226 6.4448e-013 1.17236e-011 7.15525e-013 -2.64698e-023 5.60909 -1.89659 0.0393017 -0.00519747 -0.0107269 0 6.56349 1.09934 -0.012585 -0.00945109 -0.00172301 0 7.57662 1.04304 -0.0125849 -0.00945092 -0.0026759 0 8.29213 0.399731 -0.0125846 -0.00945084 -0.00282645 0 8.9581 -0.526302 -0.0125842 -0.00945077 -0.00267648 0 18.4163 -4.35419 -0.0600548 0.0580242 -0.0207585 1.05879e-022 8.97127 1.78542 0.000171999 0.000580516 -0.0382108 6.14423 15.3316 -3.79324 -4.60578 0.43221 -0.0397379 9.01906 -1.11411 -1.79347 1.33936 -7.68102 0.990772 27.687 0 0 -2.0772 5.85875 -1.3636 27.8738 0 0 1.27312 -0.0819157 0.357848 -6.14423 15.3316 -3.79324 0.982167 0.0960285 -2.47235 -9.01884 -1.11411 -1.79347 0.60779 -0.0830714 -0.281059 -27.0381 0.00109999 5.96046e-008 -0.192201 0.0316742 0.0581031 -28.5227 0 0 -0.353162 1.36683 -0.303394 
-25.1794 93.4316 -27.9804 -0.036553 -0.0193734 -0.0271216 9.63379 -0.250344 -7.15256e-007 5.23811 -1.23471 10.901 0 -40.4779 -1.71313 2.98418 2.52003 -0.0815638 0.0126047 -40.4416 -0.864524 0.387561 -0.062828 -0.00806631 -0.183287 -12.1867 8.28226 3.86144e-012 3.29492e-011 -3.25514e-011 -9.63379 -0.250344 -7.15256e-007 -5.18672 -0.878425 0.0523534 0 -40.478 -1.71313 0.0214144 1.76887 -0.393061 -0.0126047 -40.4414 -0.864524 -0.311116 -0.987196 0.00391822 0.183287 -12.1867 8.28226 6.4448e-013 1.17236e-011 7.15525e-013 -2.64698e-023 5.60909 -1.89659 0.0420154 -0.00703151 -0.0107269 0 6.56349 1.09934 -0.0125853 -0.0131403 -0.00224863 0 7.57662 1.04304 -0.0125851 -0.0131401 -0.0031306 0 8.29213 0.399731 -0.0125848 -0.01314 -0.00324179 0 8.9581 -0.526302 -0.0125845 -0.0131399 -0.00314393 0 18.4163 -4.35419 -0.078287 0.0676233 -0.0132295 1.05879e-022 8.97127 1.78542 0.002025 -0.00181525 -0.0366448 6.14423 15.3316 -3.79324 -4.60298 0.43221 -0.0333058 9.01906 -1.11411 -1.79347 1.34416 -7.71642 0.988938 27.687 0 0 -2.0543 6.09823 -1.37306 27.8738 0 0 1.17701 -0.0893143 0.395904 -6.14423 15.3316 -3.79324 0.97144 0.0919018 -2.49942 -9.01884 -1.11411 -1.79347 0.614336 -0.0860836 -0.229315 -27.0381 0.00109999 5.96046e-008 -0.196313 0.0437098 0.0494423 -28.5227 0 0 -0.347248 1.36495 -0.313403 
-25.1784 93.4299 -27.9804 -0.0402762 -0.0172146 -0.0390861 9.63379 -0.250344 -7.15256e-007 5.23759 -1.23257 10.8962 0 -40.4779 -1.71313 2.98788 2.51498 -0.0815635 0.0126047 -40.4416 -0.864524 0.387561 -0.062828 -0.00806631 -0.183287 -12.1867 8.28226 3.86144e-012 3.29492e-011 -3.25514e-011 -9.63379 -0.250344 -7.15256e-007 -5.18626 -0.890006 0.0807244 0 -40.478 -1.71313 0.0153838 1.79777 -0.387958 -0.0126047 -40.4414 -0.864524 -0.311116 -0.990729 0.00391822 0.183287 -12.1867 8.28226 6.4448e-013 1.17236e-011 7.15525e-013 -2.64698e-023 5.60909 -1.89659 0.0463877 -0.00918171 -0.0107269 0 6.56349 1.09934 -0.0125855 -0.0174741 -0.00260707 0 7.57662 1.04304 -0.0125855 -0.0174739 -0.00341601 0 8.29213 0.399731 -0.0125852 -0.0174738 -0.00348653 0 8.9581 -0.526302 -0.0125848 -0.0174737 -0.00345034 0 18.4163 -4.35419 -0.0973395 0.0758352 4.35701e-005 1.05879e-022 8.97127 1.78542 0.00391326 -0.00629554 -0.0296934 6.14423 15.3316 -3.79324 -4.59875 0.43221 -0.0164045 9.01906 -1.11411 -1.79347 1.35636 -7.80549 0.983108 27.687 0 0 -1.9973 6.64531 -1.39656 27.8738 0 0 0.951512 -0.106343 0.483198 -6.14423 15.3316 -3.79324 0.960538 0.0874785 -2.54783 -9.01884 -1.11411 -1.79347 0.620935 -0.097541 -0.147841 -27.0381 0.00109999 5.96046e-008 -0.198876 0.0584885 0.0373554 -28.5227 0 0 -0.341972 1.357 -0.339673 
-25.1774 93.4282 -27.9805 -0.0436169 -0.0155618 -0.0500472 9.63379 -0.250344 -7.15256e-007 5.23704 -1.23022 10.892 0 -40.4779 -1.71313 2.99166 2.51069 -0.0815632 0.0126047 -40.4416 -0.864524 0.387561 -0.062828 -0.00806631 -0.183287 -12.1867 8.28226 3.86144e-012 3.29492e-011 -3.25514e-011 -9.63379 -0.250344 -7.15256e-007 -5.18586 -0.897399 0.105789 0 -40.478 -1.71313 0.00539763 1.82309 -0.37964 -0.0126047 -40.4414 -0.864524 -0.311116 -0.990322 0.00391822 0.183287 -12.1867 8.28226 6.4448e-013 1.17236e-011 7.15525e-013 -2.64698e-023 5.60909 -1.89659 0.0503009 -0.011409 -0.0107269 0 6.56349 1.09934 -0.012586 -0.021959 -0.00329986 0 7.57662 1.04304 -0.012586 -0.0219588 -0.00404 0 8.29213 0.399731 -0.0125857 -0.0219586 -0.00407249 0 8.9581 -0.526302 -0.0125854 -0.0219585 -0.00407883 0 18.4163 -4.35419 -0.120754 0.0783426 0.0141357 1.05879e-022 8.97127 1.78542 0.011007 -0.00484911 -0.0243915 6.14423 15.3316 -3.79324 -4.59435 0.43221 0.00349229 9.01906 -1.11411 -1.79347 1.37056 -7.9058 0.974944 27.687 0 0 -1.93331 7.24633 -1.42251 27.8738 0 0 0.701606 -0.12529 0.580362 -6.14423 15.3316 -3.79324 0.95208 0.0836461 -2.59737 -9.01884 -1.11411 -1.79347 0.625909 -0.11109 -0.0651051 -27.0381 0.00109999 5.96046e-008 -0.201159 0.0744619 0.026679 -28.5227 0 0 -0.339381 1.34769 -0.367532 
